{"title":"Ishqedarriyaan 2015 DVDRip Hindi Movies xviD-TvMovize.mp4","uid":13942430,"size":828979449,"categoryP":"video","categoryS":"movies","magnet":"?xt=urn:btih:b0e79e664befd3e5d786273908f15c69afa75c5a&amp;dn=Ishqedarriyaan+2015+DVDRip+Hindi+Movies+xviD-TvMovize.mp4&amp;tr=udp%3A%2F%2Ftracker.leechers-paradise.org%3A6969&amp;tr=udp%3A%2F%2Fzer0day.ch%3A1337&amp;tr=udp%3A%2F%2Fopen.demonii.com%3A1337&amp;tr=udp%3A%2F%2Ftracker.coppersurfer.tk%3A6969&amp;tr=udp%3A%2F%2Fexodus.desync.com%3A6969","seeders":1,"leechers":1,"uploader":"TvMovize","files":1,"time":1458475603,"description":"Ishqedarriyaan 2015 DVDRip Hindi Movies xviD-TvMovize.mp4\r\n\r\n++ ScreenShots ++\r\n \nhttp://www.image2be.com/movie/Ishqedarriyaan/1.html  \nhttp://www.image2be.com/movie/Ishqedarriyaan/2.html  \nhttp://www.image2be.com/movie/Ishqedarriyaan/3.html  \nhttp://www.image2be.com/movie/Ishqedarriyaan/4.html  \nhttp://www.image2be.com/movie/Ishqedarriyaan/5.html \r\n\r\n++ Info ++\r\n\r\nFormat : MPEG-4 \r\nFormat profile : Base Media \r\nCodec ID : isom (isom/iso2/avc1/mp41) \r\nFile size : 791 MiB \r\nDuration : 2h 6mn \r\nOverall bit rate : 871 Kbps \r\nWriting application : Lavf57.20.100 \r\n\r\nVideo \r\nID : 1 \r\nFormat : AVC \r\nFormat/Info : Advanced Video Codec \r\nFormat profile :    \r\nFormat settings, CABAC : No \r\nFormat settings, ReFrames : 3 frames \r\nCodec ID : avc1 \r\nCodec ID/Info : Advanced Video Coding \r\nDuration : 2h 6mn \r\nBit rate : 800 Kbps \r\nWidth : 852 pixels \r\nHeight : 480 pixels \r\nDisplay aspect ratio : 16:9 \r\nFrame rate mode : Variable \r\nFrame rate : 24.000 fps \r\nMinimum frame rate : 23.810 fps \r\nMaximum frame rate : 24.390 fps \r\nColor space : YUV \r\nChroma subsampling : 4:2:0 \r\nBit depth : 8 bits \r\nScan type : Progressive \r\nBits/(Pixel*Frame) : 0.082 \r\nStream size : 726 MiB (92%) \r\nWriting library : x264 core 140 r2377 1ca7bb9 \r\nEncoding settings : cabac=0 / ref=3 / deblock=1:0:0 / analyse=0x1:0x111 / me=hex / subme=7 / psy=1 / psy_rd=1.00:0.00 / mixed_ref=1 / me_range=16 / chroma_me=1 / trellis=1 / 8x8dct=0 / cqm=0 / deadzone=21,11 / fast_pskip=1 / chroma_qp_offset=-2 / threads=36 / lookahead_threads=3 / sliced_threads=0 / nr=0 / decimate=1 / interlaced=0 / bluray_compat=0 / constrained_intra=0 / bframes=0 / weightp=0 / keyint=250 / keyint_min=24 / scenecut=40 / intra_refresh=0 / rc_lookahead=40 / rc=2pass / mbtree=1 / bitrate=800 / ratetol=1.0 / qcomp=0.60 / qpmin=0 / qpmax=69 / qpstep=4 / cplxblur=20.0 / qblur=0.5 / ip_ratio=1.40 / aq=1:1.00 \r\n\r\nAudio \r\nID : 2 \r\nFormat : AAC \r\nFormat/Info : Advanced Audio Codec \r\nFormat profile : LC \r\nCodec ID : 40 \r\nDuration : 2h 6mn \r\nBit rate mode : Constant \r\nBit rate : 64.0 Kbps \r\nChannel(s) : 2 channels \r\nChannel positions : Front: L R \r\nSampling rate : 48.0 KHz \r\nFrame rate : 46.875 fps (1024 spf) \r\nCompression mode : Lossy \r\nStream size : 58.1 MiB (7%) \r\nDefault : Yes \r\nAlternate group : 1","torrent":{"xt":"urn:btih:b0e79e664befd3e5d786273908f15c69afa75c5a","amp;dn":"Ishqedarriyaan+2015+DVDRip+Hindi+Movies+xviD-TvMovize.mp4","amp;tr":["udp%3A%2F%2Ftracker.leechers-paradise.org%3A6969","udp%3A%2F%2Fzer0day.ch%3A1337","udp%3A%2F%2Fopen.demonii.com%3A1337","udp%3A%2F%2Ftracker.coppersurfer.tk%3A6969","udp%3A%2F%2Fexodus.desync.com%3A6969"],"infoHash":"b0e79e664befd3e5d786273908f15c69afa75c5a","infoHashBuffer":{"type":"Buffer","data":[176,231,158,102,75,239,211,229,215,134,39,57,8,241,92,105,175,167,92,90]},"announce":[],"urlList":[]}}